<svg data-v-423bf9ae="" xmlns="http://www.w3.org/2000/svg" viewBox="0 0 231 90" class="iconLeft"><!----><!----><!----><g data-v-423bf9ae="" id="2be706d6-86e4-4b6e-a1f9-7509697bfaba" fill="#0B173D" transform="matrix(5.758157253265381,0,0,5.758157253265381,111.75174713134766,-5.153549671173096)"><path d="M3.25 6.62C2.38 6.62 1.74 6.82 1.26 7.24C0.81 7.63 0.59 8.09 0.59 8.67C0.59 9.23 0.78 9.66 1.18 9.98C1.34 10.12 1.55 10.26 1.81 10.37C2.06 10.49 2.49 10.63 3.11 10.82C3.33 10.88 3.53 10.96 3.70 11.05C3.86 11.13 4.00 11.26 4.12 11.38C4.23 11.51 4.28 11.70 4.28 11.97C4.28 12.24 4.16 12.47 3.92 12.68C3.65 12.91 3.29 13.03 2.83 13.03C2.27 13.03 1.78 12.95 1.39 12.75C1.33 12.19 1.30 11.90 1.30 11.86C1.27 11.75 1.20 11.69 1.09 11.69L0.59 11.69L0.59 13.54C1.34 13.79 2.13 13.92 2.88 13.92C3.64 13.92 4.28 13.68 4.76 13.26C5.22 12.85 5.45 12.31 5.45 11.63C5.45 11.12 5.26 10.71 4.87 10.40C4.70 10.26 4.51 10.12 4.28 10.04L3.61 9.79C3.39 9.70 3.09 9.63 2.74 9.52C2.39 9.41 2.13 9.25 1.93 9.03C1.82 8.92 1.76 8.74 1.76 8.50C1.76 8.26 1.89 8.05 2.14 7.85C2.39 7.66 2.72 7.55 3.11 7.55L3.12 7.55C3.43 7.55 3.79 7.60 4.21 7.70C4.27 8.29 4.30 8.60 4.30 8.62C4.33 8.76 4.40 8.82 4.54 8.82L5.08 8.82L5.08 7.49L5.08 7.00C4.34 6.75 3.72 6.62 3.23 6.62ZM12.35 12.95C12.26 12.92 11.84 12.84 11.65 12.80L11.65 9.25C11.65 8.86 11.61 8.50 11.49 8.16C11.38 7.83 11.23 7.55 11.02 7.32C10.81 7.10 10.56 6.93 10.25 6.79C9.94 6.65 9.58 6.59 9.18 6.59C8.62 6.59 8.12 6.68 7.67 6.87C7.22 7.07 6.80 7.34 6.41 7.71L6.64 8.11C6.66 8.16 6.72 8.23 6.78 8.27C6.83 8.32 6.92 8.33 7 8.33C7.11 8.33 7.21 8.30 7.32 8.22C7.43 8.13 7.57 8.06 7.73 7.97C7.88 7.87 8.05 7.80 8.26 7.71C8.47 7.63 8.72 7.59 9.03 7.59C9.49 7.59 9.84 7.74 10.08 8.02C10.32 8.30 10.44 8.72 10.44 9.28L10.44 9.83C9.63 9.83 8.96 9.88 8.40 10.01C7.84 10.14 7.39 10.32 7.06 10.51C6.72 10.71 6.45 10.96 6.30 11.21C6.15 11.47 6.08 11.75 6.08 12.03C6.08 12.35 6.12 12.63 6.23 12.87C6.34 13.10 6.48 13.30 6.65 13.45C6.82 13.61 7.04 13.71 7.28 13.79C7.52 13.87 7.76 13.92 8.04 13.92C8.32 13.92 8.57 13.90 8.79 13.85C9.02 13.79 9.21 13.72 9.41 13.64C9.60 13.55 9.80 13.44 9.97 13.30C10.14 13.16 10.33 13.01 10.53 12.84L10.67 13.51C10.70 13.62 10.72 13.71 10.81 13.73C10.89 13.76 10.99 13.79 11.10 13.79L11.55 13.79L11.65 13.79L12.56 13.79L12.56 13.19C12.56 13.06 12.47 12.95 12.35 12.92ZM10.42 12.08C10.28 12.22 10.14 12.36 10.00 12.47C9.86 12.59 9.70 12.70 9.53 12.78C9.37 12.87 9.20 12.92 9.02 12.96C8.83 13.01 8.65 13.03 8.43 13.03C8.26 13.03 8.11 13.01 7.97 12.96C7.83 12.92 7.71 12.87 7.60 12.78C7.49 12.70 7.41 12.59 7.35 12.45C7.29 12.31 7.25 12.17 7.25 11.97C7.25 11.77 7.31 11.61 7.42 11.44C7.53 11.27 7.73 11.13 7.98 11.02C8.23 10.91 8.57 10.79 8.96 10.72C9.35 10.65 9.84 10.63 10.42 10.63ZM14.38 5.12C14.46 5.21 14.55 5.26 14.66 5.32C14.77 5.38 14.88 5.39 14.99 5.39C15.11 5.39 15.22 5.38 15.33 5.32C15.44 5.26 15.53 5.21 15.61 5.12C15.69 5.04 15.75 4.96 15.81 4.84C15.86 4.73 15.89 4.62 15.89 4.51C15.89 4.40 15.86 4.27 15.81 4.16C15.75 4.05 15.69 3.95 15.61 3.86C15.53 3.78 15.44 3.72 15.33 3.67C15.22 3.61 15.11 3.60 14.99 3.60C14.88 3.60 14.77 3.61 14.66 3.67C14.55 3.72 14.46 3.78 14.38 3.86C14.29 3.95 14.24 4.05 14.18 4.16C14.13 4.27 14.11 4.40 14.11 4.51C14.11 4.62 14.13 4.73 14.18 4.84C14.24 4.96 14.29 5.04 14.38 5.12ZM16.41 12.95C16.28 12.92 15.61 12.80 15.61 12.80L15.61 6.73L13.36 6.73L13.36 7.32C13.36 7.45 13.44 7.56 13.57 7.59C13.69 7.62 14.38 7.74 14.38 7.74L14.38 12.80C14.38 12.80 13.69 12.92 13.57 12.95C13.44 12.98 13.36 13.09 13.36 13.22L13.36 13.82L16.62 13.82L16.62 13.22C16.62 13.09 16.53 12.98 16.41 12.95ZM20.47 12.95C20.38 12.92 20.13 12.87 19.68 12.78L19.68 3.50L17.42 3.50L17.42 4.10C17.42 4.24 17.50 4.33 17.64 4.35C17.72 4.38 17.98 4.44 18.42 4.52L18.42 12.80L17.64 12.95C17.50 12.98 17.42 13.08 17.42 13.22L17.42 13.82L20.69 13.82L20.69 13.22C20.69 13.08 20.61 12.98 20.47 12.95Z"></path></g><!----><g data-v-423bf9ae="" id="448d469f-504b-4b31-9483-778faadb4319" transform="matrix(1.982270359992981,0,0,1.982270359992981,0.42551103234291077,-2.2759690284729004)" stroke="none" fill="#0B173D"><path d="M25.78 3.05a.53.53 0 0 0-1 .32v25.78h20.97zM19.59 27.52a28.67 28.67 0 0 1 0-18.52 47.58 47.58 0 0 0-12 18.57A9.31 9.31 0 0 1 13.21 26a13.8 13.8 0 0 1 6.38 1.52z"></path><path d="M7.51 37.93a10.72 10.72 0 0 1 5.34 1.71c.19.12.46.27.52.3a1.84 1.84 0 0 0 .34 0 1.64 1.64 0 0 0 .33 0c.07 0 .33-.18.52-.3a10.78 10.78 0 0 1 6-1.74 10.72 10.72 0 0 1 5.85 1.65h1.89a10.79 10.79 0 0 1 6-1.65 11.71 11.71 0 0 1 1.87.15A13.64 13.64 0 0 0 40 32.21a1.34 1.34 0 0 0-.2-1.21 1.36 1.36 0 0 0-1.09-.56H23.3V2.55A1.25 1.25 0 0 0 22 1.3h-.7v29.14H5.1A1.36 1.36 0 0 0 4 31a1.34 1.34 0 0 0-.2 1.21 13.74 13.74 0 0 0 3.71 5.72zm29.15-4.77a12.11 12.11 0 0 1-1.07 1.57H8.22a11.1 11.1 0 0 1-1.06-1.57zM43.69 42.45a4.51 4.51 0 0 1-5.07 0 7.95 7.95 0 0 0-8.65 0 4.11 4.11 0 0 1-2.54.78 4.15 4.15 0 0 1-2.54-.78 7.49 7.49 0 0 0-4.32-1.28 7.43 7.43 0 0 0-4.32 1.28 4.15 4.15 0 0 1-2.54.78 4.11 4.11 0 0 1-2.54-.78 7.49 7.49 0 0 0-4.32-1.28 7.46 7.46 0 0 0-4.32 1.28 4.19 4.19 0 0 1-2.53.78v2.33a1.06 1.06 0 0 0 1.2 1.06 7.52 7.52 0 0 0 3.11-1.2 4.12 4.12 0 0 1 2.53-.78 4.11 4.11 0 0 1 2.54.78 7.5 7.5 0 0 0 4.33 1.28A7.49 7.49 0 0 0 18 45.42a4.11 4.11 0 0 1 2.54-.78 4.15 4.15 0 0 1 2.54.78 7.49 7.49 0 0 0 4.32 1.28 7.43 7.43 0 0 0 4.32-1.28 4.15 4.15 0 0 1 2.54-.78 4.11 4.11 0 0 1 2.54.78 7.93 7.93 0 0 0 8.64 0 4.21 4.21 0 0 1 2.56-.78v-3.47a7.48 7.48 0 0 0-4.31 1.28z"></path></g><!----></svg>